<svg width="45" height="45" viewBox="0 0 45 45" fill="none" xmlns="http://www.w3.org/2000/svg">
<path d="M22.5 3.75C12.1289 3.75 3.75 12.1289 3.75 22.5C3.75 32.8711 12.1289 41.25 22.5 41.25C32.8711 41.25 41.25 32.8711 41.25 22.5C41.25 12.1289 32.8711 3.75 22.5 3.75ZM31.3257 28.6743C32.0581 29.4067 32.0581 30.5933 31.3257 31.3257C30.9595 31.6919 30.4834 31.875 30 31.875C29.5166 31.875 29.0405 31.6919 28.6743 31.3257L22.5 25.1514L16.3257 31.3257C15.9595 31.6919 15.4834 31.875 15 31.875C14.5166 31.875 14.0405 31.6919 13.6743 31.3257C12.9419 30.5933 12.9419 29.4067 13.6743 28.6743L19.8486 22.5L13.6743 16.3257C12.9419 15.5933 12.9419 14.4067 13.6743 13.6743C14.4067 12.9419 15.5933 12.9419 16.3257 13.6743L22.5 19.8486L28.6743 13.6743C29.4067 12.9419 30.5933 12.9419 31.3257 13.6743C32.0581 14.4067 32.0581 15.5933 31.3257 16.3257L25.1514 22.5L31.3257 28.6743Z" fill="white"/>
</svg>
